<svg width="49" height="45" viewBox="0 0 49 45" fill="none" xmlns="http://www.w3.org/2000/svg">
<path fill-rule="evenodd" clip-rule="evenodd" d="M32.2553 21.6749C28.2968 23.1248 23.9968 20.6502 24.1977 16.3927C24.2727 14.8029 25.3525 13.0383 26.9308 11.9142C29.0898 10.3767 32.6419 10.0606 34.5176 10.8274C36.4857 11.632 37.9901 13.4271 38.7305 15.3943C40.7066 22.0202 33.7026 30.2714 29.6534 35.1763C32.004 31.5472 35.1633 24.9563 32.2553 21.6749Z" fill="#0FB150"/>
<path fill-rule="evenodd" clip-rule="evenodd" d="M31.1724 10.2328C31.3074 10.2316 31.4381 10.236 31.5686 10.2425C31.8063 10.2543 32.0748 10.2775 32.3642 10.3127C32.9276 10.381 33.5669 10.5029 34.2043 10.7077C34.4242 10.7784 34.6372 10.8797 34.8464 10.9776C35.2377 11.1607 35.5974 11.3911 35.9223 11.6175C36.0495 11.706 36.1746 11.8115 36.2817 11.8957C36.5519 12.1083 36.7691 12.3355 36.9782 12.5601C37.358 12.9679 37.674 13.3919 37.9678 13.8789C38.5809 14.8948 39.0754 16.032 39.0786 17.3327C39.0833 19.2285 38.623 21.4541 37.5525 23.7916C36.0806 27.0057 33.5244 30.4808 30.5471 34.0876C34.959 25.7854 41.5089 16.3191 31.1724 10.2328Z" fill="#346040" fill-opacity="0.21"/>
<path fill-rule="evenodd" clip-rule="evenodd" d="M13.7792 22.0739C9.82069 23.5238 5.52072 21.0492 5.72159 16.7917C5.79659 15.2019 6.87644 13.4373 8.45471 12.3133C10.6138 10.7757 14.1658 10.4596 16.0415 11.2264C18.0096 12.0311 19.514 13.8261 20.2545 15.7933C22.2305 22.4192 15.2265 30.6704 11.1773 35.5754C13.528 31.9463 16.6872 25.3553 13.7792 22.0739Z" fill="#0FB150"/>
<path fill-rule="evenodd" clip-rule="evenodd" d="M12.6963 10.6318C12.8313 10.6306 12.962 10.6351 13.0925 10.6416C13.3302 10.6533 13.5987 10.6765 13.8881 10.7117C14.4515 10.78 15.0909 10.9019 15.7282 11.1067C15.9481 11.1774 16.1611 11.2787 16.3703 11.3767C16.7616 11.5597 17.1213 11.7901 17.4463 12.0165C17.5734 12.105 17.6986 12.2105 17.8056 12.2947C18.0758 12.5073 18.293 12.7345 18.5022 12.9591C18.8819 13.3669 19.1979 13.7909 19.4918 14.2779C20.1048 15.2939 20.5993 16.431 20.6025 17.7317C20.6073 19.6275 20.1469 21.8532 19.0765 24.1907C17.6046 27.4047 15.0483 30.8798 12.071 34.4866C16.4829 26.1844 23.0329 16.7181 12.6963 10.6318Z" fill="#346040" fill-opacity="0.21"/>
</svg>
